<svg width="900" height="1100" viewBox="0 0 600 720" xmlns="http://www.w3.org/2000/svg" role="img" aria-labelledby="title">
  <title id="title">Azure Set product illustration</title>
  <defs>
    <linearGradient id="bg" x1="0" y1="0" x2="1" y2="1"><stop stop-color="#eaf4fb"/><stop offset="1" stop-color="#fffdfa"/></linearGradient>
    <filter id="shadow" x="-20%" y="-20%" width="140%" height="140%"><feDropShadow dx="0" dy="16" stdDeviation="18" flood-opacity=".17"/></filter>
    <radialGradient id="glow" cx="50%" cy="18%" r="62%"><stop stop-color="#fff" stop-opacity=".95"/><stop offset="1" stop-color="#fff" stop-opacity="0"/></radialGradient>
  </defs>
  <rect width="600" height="720" rx="34" fill="url(#bg)"/>
  <circle cx="510" cy="105" r="120" fill="url(#glow)" opacity=".9"/>
  <path d="M94 612 C198 561 367 563 507 624" stroke="#1a1a1a" stroke-opacity=".08" stroke-width="42" stroke-linecap="round"/>
  <g filter="url(#shadow)" stroke="#1b1b1b" stroke-opacity=".22" stroke-width="2" stroke-linejoin="round"><path d="M225 128 C246 154 333 154 356 128 L392 186 L358 266 H222 L188 186 Z" fill="#2b82b8"/><path d="M235 284 H352 L388 438 C347 457 242 457 198 438 L235 284Z" fill="#2b82b8"/><path d="M258 142 L290 194 L327 142" stroke="#fff" stroke-opacity=".33" stroke-width="4" fill="none"/><line x1="292" y1="284" x2="292" y2="438" stroke="#fff" stroke-opacity=".22" stroke-width="3"/></g>
  <text x="300" y="650" text-anchor="middle" font-family="Georgia, 'Times New Roman', serif" font-size="30" fill="#222" opacity=".55" letter-spacing="4">PAVIA</text>
</svg>